<svg xmlns="http://www.w3.org/2000/svg" width="46" height="46" viewBox="0 0 46 46" fill="none"><path d="M22.6611 44.4557H8.65039C4.23211 44.4557 0.650391 40.874 0.650391 36.4557V12.6371C0.650391 8.21882 4.23211 4.63708 8.65039 4.63708H36.6719C41.0902 4.63708 44.6719 8.21881 44.6719 12.6371V26.8205" stroke="#0F253D" stroke-width="1.3" stroke-linecap="round"></path><circle cx="34.7559" cy="35.6784" r="8.12736" stroke="#0F253D" stroke-width="1.3"></circle><path d="M34.3867 31.6014V35.566C34.3867 36.1182 34.8344 36.566 35.3867 36.566H37.7412" stroke="#0F253D" stroke-width="1.3" stroke-linecap="round"></path><circle cx="11.0123" cy="18.9307" r="1.10257" fill="#0F253D" stroke="#0F253D" stroke-width="1.3"></circle><circle cx="18.778" cy="18.9307" r="1.10257" fill="#0F253D" stroke="#0F253D" stroke-width="1.3"></circle><circle cx="26.5416" cy="18.9307" r="1.10257" fill="#0F253D" stroke="#0F253D" stroke-width="1.3"></circle><circle cx="34.3073" cy="18.9307" r="1.10257" fill="#0F253D" stroke="#0F253D" stroke-width="1.3"></circle><circle cx="18.778" cy="26.6368" r="1.10257" fill="#0F253D" stroke="#0F253D" stroke-width="1.3"></circle><circle cx="11.0123" cy="26.6368" r="1.10257" fill="#0F253D" stroke="#0F253D" stroke-width="1.3"></circle><circle cx="11.0123" cy="34.3428" r="1.10257" fill="#0F253D" stroke="#0F253D" stroke-width="1.3"></circle><circle cx="18.778" cy="34.3428" r="1.10257" fill="#0F253D" stroke="#0F253D" stroke-width="1.3"></circle><rect x="12.1844" y="0.325" width="0.65" height="10.087" rx="0.325" fill="#0F253D" stroke="#0F253D" stroke-width="0.65"></rect><rect x="22.3367" y="0.325" width="0.65" height="10.087" rx="0.325" fill="#0F253D" stroke="#0F253D" stroke-width="0.65"></rect><rect x="32.4871" y="0.325" width="0.65" height="10.087" rx="0.325" fill="#0F253D" stroke="#0F253D" stroke-width="0.65"></rect></svg>