<svg xmlns="http://www.w3.org/2000/svg" width="273" height="22" viewBox="0 0 273 22" fill="none"><path d="M16.577 21.1022H0.849854V20.8638C1.83059 20.5899 2.45791 20.2453 2.45791 19.1142V7.38957C2.45791 6.03791 1.94545 5.74617 0.849854 5.41943V5.18076H6.94632V5.41943C5.89491 5.71975 5.30294 6.08194 5.30294 7.38957V19.026C5.30294 19.7063 5.69169 19.8831 6.28368 19.8831H13.7231C15.181 19.8831 15.6316 19.0171 16.3384 17.6741H16.577V21.1022Z" fill="#1D1D1B"></path><path d="M24.7059 6.43526V12.3197H31.6594C32.6667 12.3197 33.0289 11.6394 33.2673 10.6499H33.7799V15.1382H33.2673C33.1614 14.4314 32.5429 13.5745 31.6594 13.5745H24.7059V19.3086C24.7059 19.6974 25.0505 19.883 25.4303 19.883H33.9036C35.6972 19.883 36.1036 18.593 36.4658 17.674H36.7045V21.1022H20.1467V20.8637C21.2158 20.5632 21.7548 20.2186 21.7548 18.9376V7.38951C21.7548 6.03784 21.2158 5.71968 20.1467 5.41936V5.18069C20.1467 5.18069 35.2731 5.18069 36.0151 5.18069C36.2095 5.18069 36.3333 5.0924 36.4658 4.96866H36.7045V8.43205H36.4658C36.404 7.78715 35.7591 6.42645 34.5661 6.42645H24.7059V6.43526Z" fill="#1D1D1B"></path><path d="M34.1331 1.34611C32.6134 1.58455 30.2366 2.98951 28.9556 4.14698H27.9307C28.6817 2.98951 30.6078 0.789499 32.6134 0.171021C33.0817 0.303568 33.8504 0.789497 34.1331 1.34611Z" fill="#1D1D1B"></path><path d="M59.7648 5.83463C59.9328 5.79038 60.1536 5.74612 60.3038 5.68425H60.6219V9.14786H60.3038C59.3583 6.47073 55.5149 5.65783 52.8996 5.65783C48.473 5.65783 44.0906 8.008 44.0906 12.7174C44.0906 17.4268 48.4289 19.8652 52.7759 19.8652C54.49 19.8652 56.1776 19.4766 57.5912 18.752V16.3311C57.5912 15.0499 56.8668 14.6611 55.9832 14.405V14.1488H62.0797V14.405C61.0724 14.7054 60.4363 15.0499 60.4363 16.3488V19.2379C58.2982 20.4749 55.1085 21.0758 52.8025 21.1022C46.6175 21.1022 40.7861 17.8508 40.7861 12.7616C40.7861 8.52938 44.7887 4.40326 52.5727 4.40326C55.0114 4.40326 57.7237 5.11003 59.7824 5.83463H59.7648Z" fill="#1D1D1B"></path><path d="M88.648 7.39833C88.648 6.04667 88.0911 5.72851 87.0398 5.42819V5.18951H98.2873C102.74 5.18951 104.94 7.05376 104.94 9.44818C104.94 12.0106 102.546 13.7511 97.8633 13.7511L104.084 19.291C105.365 20.3602 106.204 20.6781 106.761 20.8725V21.1112H102.166L92.9685 12.8587V12.5406H97.7574C100.346 12.5406 101.583 11.0209 101.583 9.45722C101.583 7.89329 100.346 6.44431 97.7574 6.44431H92.7917C92.0231 6.44431 91.4841 6.46192 91.4841 7.30123V18.9552C91.4841 20.2364 92.0231 20.581 93.1099 20.8813V21.12H87.0398V20.8813C88.0911 20.581 88.648 20.2364 88.648 18.9552V7.40736V7.39833Z" fill="#1D1D1B"></path><path d="M70.9591 0.276917C72.9735 0.895395 74.8908 3.10444 75.6419 4.25288H74.6169C73.3359 3.09563 70.9591 1.69068 69.4395 1.45223C69.7134 0.895395 70.4908 0.400657 70.9591 0.276917Z" fill="#1D1D1B"></path><path d="M70.4384 6.43526V12.3197H77.3918C78.3991 12.3197 78.7613 11.6394 79 10.6499H79.5123V15.1382H79C78.8938 14.4314 78.2754 13.5745 77.3918 13.5745H70.4384V19.3086C70.4384 19.6974 70.7829 19.883 71.1627 19.883H79.6361C81.4296 19.883 81.8361 18.593 82.1983 17.674H82.4369V21.1022H65.8792V20.8637C66.9483 20.5632 67.4873 20.2186 67.4873 18.9376V7.38951C67.4873 6.03784 66.9483 5.71968 65.8792 5.41936V5.18069C65.8792 5.18069 81.0056 5.18069 81.7478 5.18069C81.9422 5.18069 82.0657 5.0924 82.1983 4.96866H82.4369V8.43205H82.1983C82.1364 7.78715 81.4915 6.42645 80.2988 6.42645H70.4384V6.43526Z" fill="#1D1D1B"></path><path d="M114.766 6.43526V12.3197H121.719C122.726 12.3197 123.089 11.6394 123.327 10.6499H123.84V15.1382H123.327C123.221 14.4314 122.603 13.5745 121.719 13.5745H114.766V19.3086C114.766 19.6974 115.11 19.883 115.49 19.883H123.963C125.757 19.883 126.163 18.593 126.526 17.674H126.764V21.1022H110.207V20.8637C111.276 20.5632 111.814 20.2186 111.814 18.9376V7.38951C111.814 6.03784 111.276 5.71968 110.207 5.41936V5.18069C110.207 5.18069 125.333 5.18069 126.075 5.18069C126.269 5.18069 126.393 5.0924 126.526 4.96866H126.764V8.43205H126.526C126.464 7.78715 125.819 6.42645 124.626 6.42645H114.766V6.43526Z" fill="#1D1D1B"></path><path d="M143.463 21.1022V20.8638C144.514 20.5635 145.071 20.2189 145.071 18.9377V7.38957C145.071 6.03791 144.514 5.71975 143.463 5.41943V5.18076H155.418C158.245 5.18076 161.832 5.82588 161.832 9.07724C161.832 10.6588 160.913 11.6837 159.818 12.3464C161.638 12.8412 163.343 14.2459 163.343 16.499C163.343 19.9183 159.279 21.0934 156.178 21.0934H143.454L143.463 21.1022ZM147.934 6.42652V11.9488H155.082C156.69 11.9488 158.846 11.5247 158.846 9.14791C158.846 6.7711 156.69 6.43555 154.949 6.43555H147.934V6.42652ZM147.934 19.3265C148.022 19.6444 148.296 19.8212 148.641 19.8388H155.956C158.695 19.8388 159.977 18.2131 159.977 16.499C159.977 14.7849 158.775 13.2034 156.319 13.2034H147.934V19.3175V19.3265Z" fill="#1D1D1B"></path><path d="M203.898 18.708L201.972 15.474H192.5L190.38 18.9377C189.699 20.1127 190.804 20.5456 191.855 20.8638V21.1022H185.697V20.8638C186.421 20.6694 187.446 20.4397 188.586 18.6371L196.176 6.23233C195.858 5.73736 195.089 5.55198 194.426 5.41943V5.18076H199.021L207.299 18.7875C208.219 20.3072 209.438 20.6517 210.145 20.8638V21.1022H202.484V20.8638C203.297 20.6075 204.322 20.2189 204.198 19.4324C204.181 19.2204 204.066 19.0083 203.898 18.708ZM193.269 14.1931H201.221L197.307 7.4957L193.26 14.1931H193.269Z" fill="#1D1D1B"></path><path d="M228.973 13.0001C228.973 18.5221 224.758 21.1022 220.226 21.1022C215.693 21.1022 211.346 18.3013 211.346 12.8852V7.00071C211.346 5.67546 210.789 5.3573 209.72 5.03056V4.79189H216.011V5.03056C215.004 5.34849 214.403 5.64904 214.386 6.80629V12.6025C214.386 17.2676 217.169 19.7857 220.756 19.7857C224.096 19.7857 227.259 17.5151 227.259 13.0265V6.9919C227.259 5.66665 226.702 5.3485 225.677 5.02153V4.78308H230.599V5.02153C229.529 5.32208 228.973 5.64001 228.973 6.9919V12.9825V13.0001Z" fill="#1D1D1B"></path><path d="M245.744 20.8725V21.1112H239.672V20.8725C240.654 20.5986 241.298 20.2716 241.298 19.1232V6.55019H235.926C234.512 6.55019 233.575 7.60154 233.081 8.60004H232.844V5.1983H252.538V8.60004H252.299C251.831 7.59273 250.867 6.55019 249.454 6.55019H244.082V19.1232C244.082 20.2805 244.728 20.5986 245.726 20.8725H245.744Z" fill="#1D1D1B"></path><path d="M269.704 1.34611C268.184 1.58455 265.809 2.98951 264.526 4.14698H263.501C264.253 2.98951 266.179 0.789499 268.184 0.171021C268.654 0.303568 269.422 0.789497 269.704 1.34611Z" fill="#1D1D1B"></path><path d="M171.613 6.43526V12.3197H178.566C179.573 12.3197 179.936 11.6394 180.174 10.6499H180.687V15.1382H180.174C180.068 14.4314 179.45 13.5745 178.566 13.5745H171.613V19.3086C171.613 19.6974 171.957 19.883 172.337 19.883H180.81C182.604 19.883 183.011 18.593 183.373 17.674H183.611V21.1022H167.054V20.8637C168.123 20.5632 168.662 20.2186 168.662 18.9376V7.38951C168.662 6.03784 168.123 5.71968 167.054 5.41936V5.18069C167.054 5.18069 182.18 5.18069 182.922 5.18069C183.117 5.18069 183.24 5.0924 183.373 4.96866H183.611V8.43205H183.373C183.311 7.78715 182.666 6.42645 181.473 6.42645H171.613V6.43526Z" fill="#1D1D1B"></path><path d="M260.267 6.43526V12.3197H267.222C268.229 12.3197 268.591 11.6394 268.83 10.6499H269.343V15.1382H268.83C268.724 14.4314 268.105 13.5745 267.222 13.5745H260.267V19.3086C260.267 19.6974 260.613 19.883 260.992 19.883H269.467C271.26 19.883 271.666 18.593 272.027 17.674H272.267V21.1022H255.708V20.8637C256.779 20.5632 257.316 20.2186 257.316 18.9376V7.38951C257.316 6.03784 256.779 5.71968 255.708 5.41936V5.18069C255.708 5.18069 270.835 5.18069 271.578 5.18069C271.772 5.18069 271.896 5.0924 272.027 4.96866H272.267V8.43205H272.027C271.966 7.78715 271.321 6.42645 270.128 6.42645H260.267V6.43526Z" fill="#1D1D1B"></path></svg>